<?xml version="1.0" encoding="UTF-8"?>
<svg id="_레이어_2" data-name="레이어 2" xmlns="http://www.w3.org/2000/svg" viewBox="0 0 495.9 495.89">
  <defs>
    <style>
      .cls-1 {
        fill: #fff;
      }
    </style>
  </defs>
  <g id="_레이어_1-2" data-name=" 레이어 1">
    <g>
      <polygon points="220.41 495.89 195.38 495.89 0 300.52 0 275.48 220.41 495.89"/>
      <polygon points="70.08 495.89 45.05 495.89 0 450.85 0 425.81 70.08 495.89"/>
      <polygon points="170.35 495.89 145.18 495.89 0 350.72 0 325.55 170.35 495.89"/>
      <polygon points="20.02 495.89 0 495.89 0 475.88 20.02 495.89"/>
      <polygon points="120.15 495.89 95.11 495.89 0 400.78 0 375.75 120.15 495.89"/>
      <polygon points="270.48 495.89 245.44 495.89 0 250.45 0 225.42 270.48 495.89"/>
      <polygon points="370.6 495.89 345.57 495.89 0 150.33 0 125.29 370.6 495.89"/>
      <polygon points="470.87 495.89 445.84 495.89 0 50.06 0 25.03 470.87 495.89"/>
      <polygon points="420.81 495.89 395.63 495.89 0 100.26 0 75.09 420.81 495.89"/>
      <polygon points="320.54 495.89 295.51 495.89 0 200.39 0 175.36 320.54 495.89"/>
      <polygon class="cls-1" points="495.9 495.89 470.87 495.89 0 25.03 0 0 495.9 495.89"/>
      <polygon class="cls-1" points="445.84 495.89 420.81 495.89 0 75.09 0 50.06 445.84 495.89"/>
      <polygon class="cls-1" points="395.63 495.89 370.6 495.89 0 125.29 0 100.26 395.63 495.89"/>
      <polygon class="cls-1" points="345.57 495.89 320.54 495.89 0 175.36 0 150.33 345.57 495.89"/>
      <polygon class="cls-1" points="295.51 495.89 270.48 495.89 0 225.42 0 200.39 295.51 495.89"/>
      <polygon class="cls-1" points="245.44 495.89 220.41 495.89 0 275.48 0 250.45 245.44 495.89"/>
      <polygon class="cls-1" points="195.38 495.89 170.35 495.89 0 325.55 0 300.52 195.38 495.89"/>
      <polygon class="cls-1" points="145.18 495.89 120.15 495.89 0 375.75 0 350.72 145.18 495.89"/>
      <polygon class="cls-1" points="95.11 495.89 70.08 495.89 0 425.81 0 400.78 95.11 495.89"/>
      <polygon class="cls-1" points="45.05 495.89 20.02 495.89 0 475.88 0 450.85 45.05 495.89"/>
      <polygon points="495.9 370.6 495.9 395.77 100.13 0 125.3 0 495.9 370.6"/>
      <polygon points="495.9 70.08 495.9 95.11 400.79 0 425.82 0 495.9 70.08"/>
      <polygon points="495.9 420.8 495.9 445.83 50.07 0 75.1 0 495.9 420.8"/>
      <polygon points="495.9 320.53 495.9 345.56 150.33 0 175.36 0 495.9 320.53"/>
      <polygon points="495.9 470.86 495.9 495.89 0 0 25.03 0 495.9 470.86"/>
      <polygon points="495.9 20.01 495.9 45.04 450.85 0 475.88 0 495.9 20.01"/>
      <polygon points="495.9 120.14 495.9 145.31 350.59 0 375.76 0 495.9 120.14"/>
      <polygon points="495.9 170.34 495.9 195.37 300.52 0 325.55 0 495.9 170.34"/>
      <polygon points="495.9 220.41 495.9 245.44 250.46 0 275.49 0 495.9 220.41"/>
      <polygon points="495.9 270.47 495.9 295.5 200.4 0 225.43 0 495.9 270.47"/>
      <polygon class="cls-1" points="495.9 0 495.9 20.01 475.88 0 495.9 0"/>
      <polygon class="cls-1" points="495.9 45.04 495.9 70.08 425.82 0 450.85 0 495.9 45.04"/>
      <polygon class="cls-1" points="495.9 95.11 495.9 120.14 375.76 0 400.79 0 495.9 95.11"/>
      <polygon class="cls-1" points="495.9 145.31 495.9 170.34 325.55 0 350.59 0 495.9 145.31"/>
      <polygon class="cls-1" points="495.9 195.37 495.9 220.41 275.49 0 300.52 0 495.9 195.37"/>
      <polygon class="cls-1" points="495.9 245.44 495.9 270.47 225.43 0 250.46 0 495.9 245.44"/>
      <polygon class="cls-1" points="495.9 295.5 495.9 320.53 175.36 0 200.4 0 495.9 295.5"/>
      <polygon class="cls-1" points="495.9 345.56 495.9 370.6 125.3 0 150.33 0 495.9 345.56"/>
      <polygon class="cls-1" points="495.9 395.77 495.9 420.8 75.1 0 100.13 0 495.9 395.77"/>
      <polygon class="cls-1" points="495.9 445.83 495.9 470.86 25.03 0 50.07 0 495.9 445.83"/>
    </g>
  </g>
</svg>